#N canvas -185 31 1920 966 12;
#X obj 263 415 adc~ 1 2;
#X obj 216 720 dac~ 1 2;
#X obj 479 12 param.change;
#X obj 120 505 channel~;
#X obj 185 506 channel~;
#X obj 13 322 hsl 199 15 0 100 0 0 \$0-mix-s \$0-mix mix -2 -8 0 10
#fcfcfc #000000 #000000 0 1;
#X obj 144 646 *~;
#X obj 218 648 *~;
#X obj 309 644 *~;
#X obj 377 651 *~;
#X obj 348 537 / 100;
#X obj 443 573 - 1;
#X obj 407 607 * -1;
#X obj 10 31 vradio 15 1 0 12 \$0-n1-s \$0-n1 empty 0 -8 0 10 #fcfcfc
#000000 #000000 0;
#X obj 25 31 vradio 15 1 0 12 \$0-n2-s \$0-n2 empty 0 -8 0 10 #fcfcfc
#000000 #000000 0;
#X obj 40 31 vradio 15 1 0 12 \$0-n3-s \$0-n3 empty 0 -8 0 10 #fcfcfc
#000000 #000000 0;
#X obj 55 31 vradio 15 1 0 12 \$0-n4-s \$0-n4 empty 0 -8 0 10 #fcfcfc
#000000 #000000 0;
#X obj 70 31 vradio 15 1 0 12 \$0-n5-s \$0-n5 empty 0 -8 0 10 #fcfcfc
#000000 #000000 0;
#X obj 85 31 vradio 15 1 0 12 \$0-n6-s \$0-n6 empty 0 -8 0 10 #fcfcfc
#000000 #000000 0;
#X obj 100 31 vradio 15 1 0 12 \$0-n7-s \$0-n7 empty 0 -8 0 10 #fcfcfc
#000000 #000000 0;
#X obj 115 31 vradio 15 1 0 12 \$0-n8-s \$0-n8 empty 0 -8 0 10 #fcfcfc
#000000 #000000 0;
#X obj 130 31 vradio 15 1 0 12 \$0-n9-s \$0-n9 empty 0 -8 0 10 #fcfcfc
#000000 #000000 0;
#X obj 145 31 vradio 15 1 0 12 \$0-n10-s \$0-n10 empty 0 -8 0 10 #fcfcfc
#000000 #000000 0;
#X obj 160 31 vradio 15 1 0 12 \$0-n11-s \$0-n11 empty 0 -8 0 10 #fcfcfc
#000000 #000000 0;
#X obj 175 31 vradio 15 1 0 12 \$0-n12-s \$0-n12 empty 0 -8 0 10 #fcfcfc
#000000 #000000 0;
#X obj 13 228 hsl 199 15 0 100 0 0 \$0-ftime-s \$0-ftime freq\ smooth
-2 -8 0 10 #fcfcfc #000000 #000000 0 1;
#X floatatom 177 260 7 -24 24 2 pitch \$0-pitch \$0-pitch-s 8;
#X obj 13 259 hsl 70 15 1 100 0 0 \$0-atime-s $-atime amp\ smooth -2
-8 0 10 #fcfcfc #000000 #000000 0 1;
#X obj 13 291 hsl 129 15 2000 21000 1 0 \$0-split-s \$0-split high\ split
-2 -8 0 10 #fcfcfc #000000 #000000 0 1;
#X obj 96 259 hsl 70 15 0 1 0 0 \$0-quantize-s \$0-quantize pitch\ correct
-2 -8 0 10 #fcfcfc #000000 #000000 0 1;
#X obj 155 291 tgl 15 0 \$0-enabled-s \$0-enabled enabled 17 7 0 10
#fcfcfc #000000 #000000 0 1;
#X msg 861 342 set \$1;
#X obj 670 366 param.set 1;
#X obj 670 342 r \$0-mix-s;
#X obj 771 367 s \$0-mix;
#X msg 861 414 set \$1;
#X obj 670 414 r \$0-ftime-s;
#X obj 772 439 s \$0-ftime;
#X msg 864 495 set \$1;
#X obj 670 438 param.set 2;
#X obj 673 519 param.set 3;
#X obj 776 520 s \$0-atime;
#X obj 673 495 r \$0-atime-s;
#X msg 862 570 set \$1;
#X msg 865 651 set \$1;
#X obj 671 594 param.set 4;
#X obj 661 678 param.set 5;
#X obj 671 570 r \$0-pitch-s;
#X obj 775 598 s \$0-pitch;
#X obj 660 654 r \$0-quantize-s;
#X obj 777 676 s \$0-quantize;
#X msg 869 720 set \$1;
#X obj 664 723 r \$0-split-s;
#X obj 781 745 s \$0-split;
#X msg 867 797 set \$1;
#X obj 662 800 r \$0-enabled-s;
#X obj 778 822 s \$0-enabled;
#X obj 663 823 param.set 7;
#X obj 665 747 param.set 6;
#X msg 1227 16 set \$1;
#X obj 1023 42 param.set 8;
#X obj 1022 19 r \$0-n1-s;
#X obj 1139 41 s \$0-n1;
#X msg 1227 88 set \$1;
#X obj 1022 91 r \$0-n2-s;
#X obj 1139 113 s \$0-n2;
#X obj 1023 114 param.set 9;
#X msg 1223 163 set \$1;
#X msg 1223 235 set \$1;
#X obj 1018 166 r \$0-n3-s;
#X obj 1019 189 param.set 10;
#X obj 1135 188 s \$0-n3;
#X obj 1018 238 r \$0-n4-s;
#X obj 1019 261 param.set 11;
#X obj 1135 260 s \$0-n4;
#X msg 1225 307 set \$1;
#X msg 1225 379 set \$1;
#X msg 1221 454 set \$1;
#X msg 1221 526 set \$1;
#X msg 1226 613 set \$1;
#X msg 1226 685 set \$1;
#X msg 1222 760 set \$1;
#X msg 1222 832 set \$1;
#X obj 1021 333 param.set 12;
#X obj 1021 405 param.set 13;
#X obj 1017 480 param.set 14;
#X obj 1017 552 param.set 15;
#X obj 1022 639 param.set 16;
#X obj 1022 711 param.set 17;
#X obj 1018 786 param.set 18;
#X obj 1018 858 param.set 19;
#X obj 1020 310 r \$0-n5-s;
#X obj 1137 332 s \$0-n5;
#X obj 1137 404 s \$0-n6;
#X obj 1020 382 r \$0-n6-s;
#X obj 1016 457 r \$0-n7-s;
#X obj 1133 479 s \$0-n7;
#X obj 1133 551 s \$0-n8;
#X obj 1016 529 r \$0-n8-s;
#X obj 1021 616 r \$0-n9-s;
#X obj 1138 638 s \$0-n9;
#X obj 1138 710 s \$0-n10;
#X obj 1021 688 r \$0-n10-s;
#X obj 1017 763 r \$0-n11-s;
#X obj 1134 785 s \$0-n11;
#X obj 1017 835 r \$0-n12-s;
#X obj 1134 857 s \$0-n12;
#X obj 771 274 param.get.multi;
#X obj 772 345 route 1;
#X obj 774 411 route 2;
#X obj 777 492 route 3;
#X obj 777 567 route 4;
#X obj 779 647 route 5;
#X obj 781 714 route 6;
#X obj 779 793 route 7;
#X obj 1139 16 route 8;
#X obj 1139 88 route 9;
#X obj 1135 163 route 10;
#X obj 1135 235 route 11;
#X obj 1137 306 route 12;
#X obj 1137 379 route 13;
#X obj 1133 454 route 14;
#X obj 1133 526 route 15;
#X obj 1138 613 route 16;
#X obj 1138 685 route 17;
#X obj 1134 760 route 18;
#X obj 1134 832 route 19;
#X obj 391 482 route 1;
#X obj 198 31 tgl 15 0 empty empty empty 17 7 0 10 #fcfcfc #000000
#000000 0 1;
#X obj 198 46 tgl 15 0 empty empty empty 17 7 0 10 #fcfcfc #000000
#000000 0 1;
#X obj 198 61 tgl 15 0 empty empty empty 17 7 0 10 #fcfcfc #000000
#000000 0 1;
#X obj 198 76 tgl 15 0 empty empty empty 17 7 0 10 #fcfcfc #000000
#000000 0 1;
#X obj 198 91 tgl 15 0 empty empty empty 17 7 0 10 #fcfcfc #000000
#000000 0 1;
#X obj 198 106 tgl 15 0 empty empty empty 17 7 0 10 #fcfcfc #000000
#000000 0 1;
#X obj 198 121 tgl 15 0 empty empty empty 17 7 0 10 #fcfcfc #000000
#000000 0 1;
#X obj 198 136 tgl 15 0 empty empty empty 17 7 0 10 #fcfcfc #000000
#000000 0 1;
#X obj 198 151 tgl 15 0 empty empty empty 17 7 0 10 #fcfcfc #000000
#000000 0 1;
#X obj 198 166 tgl 15 0 empty empty empty 17 7 0 10 #fcfcfc #000000
#000000 0 1;
#X obj 198 181 tgl 15 0 empty empty empty 17 7 0 10 #fcfcfc #000000
#000000 0 1;
#X obj 198 196 tgl 15 0 empty empty empty 17 7 0 10 #fcfcfc #000000
#000000 0 1;
#X obj 372 78 sample.note;
#X obj 371 103 sample.note;
#X obj 372 127 sample.note;
#X obj 373 154 sample.note;
#X obj 373 181 sample.note;
#X obj 372 206 sample.note;
#X obj 373 234 sample.note;
#X obj 373 256 sample.note;
#X obj 373 281 sample.note;
#X obj 372 307 sample.note;
#X obj 373 331 sample.note;
#X obj 373 358 sample.note;
#X obj 582 43 loadbang;
#X msg 487 63 11;
#X msg 488 92 10;
#X msg 489 122 9;
#X msg 489 148 8;
#X msg 490 178 7;
#X msg 491 208 6;
#X msg 492 232 5;
#X msg 493 261 4;
#X msg 494 291 3;
#X msg 494 317 2;
#X msg 495 347 1;
#X msg 496 377 0;
#X obj 198 7 bng 15 250 50 0 empty empty empty -2 -5 0 7 #fcfcfc #000000
#000000;
#X msg 275 30 0;
#X connect 0 0 8 0;
#X connect 0 0 3 0;
#X connect 0 1 9 0;
#X connect 0 1 4 0;
#X connect 3 0 6 0;
#X connect 4 0 7 0;
#X connect 6 0 1 0;
#X connect 7 0 1 1;
#X connect 8 0 1 0;
#X connect 9 0 1 1;
#X connect 10 0 6 1;
#X connect 10 0 7 1;
#X connect 10 0 11 0;
#X connect 11 0 12 0;
#X connect 12 0 8 1;
#X connect 12 0 9 1;
#X connect 31 0 34 0;
#X connect 33 0 32 0;
#X connect 35 0 37 0;
#X connect 36 0 39 0;
#X connect 38 0 41 0;
#X connect 42 0 40 0;
#X connect 43 0 48 0;
#X connect 44 0 50 0;
#X connect 47 0 45 0;
#X connect 49 0 46 0;
#X connect 51 0 53 0;
#X connect 52 0 58 0;
#X connect 54 0 56 0;
#X connect 55 0 57 0;
#X connect 59 0 62 0;
#X connect 61 0 60 0;
#X connect 63 0 65 0;
#X connect 64 0 66 0;
#X connect 67 0 71 0;
#X connect 68 0 74 0;
#X connect 69 0 70 0;
#X connect 72 0 73 0;
#X connect 75 0 92 0;
#X connect 76 0 93 0;
#X connect 77 0 96 0;
#X connect 78 0 97 0;
#X connect 79 0 100 0;
#X connect 80 0 101 0;
#X connect 81 0 104 0;
#X connect 82 0 106 0;
#X connect 91 0 83 0;
#X connect 94 0 84 0;
#X connect 95 0 85 0;
#X connect 98 0 86 0;
#X connect 99 0 87 0;
#X connect 102 0 88 0;
#X connect 103 0 89 0;
#X connect 105 0 90 0;
#X connect 107 0 108 0;
#X connect 107 0 109 0;
#X connect 107 0 110 0;
#X connect 107 0 111 0;
#X connect 107 0 112 0;
#X connect 107 0 113 0;
#X connect 107 0 114 0;
#X connect 107 0 115 0;
#X connect 107 0 116 0;
#X connect 107 0 117 0;
#X connect 107 0 118 0;
#X connect 107 0 119 0;
#X connect 107 0 120 0;
#X connect 107 0 121 0;
#X connect 107 0 122 0;
#X connect 107 0 123 0;
#X connect 107 0 124 0;
#X connect 107 0 125 0;
#X connect 107 0 126 0;
#X connect 107 0 127 0;
#X connect 107 0 3 1;
#X connect 107 0 4 1;
#X connect 107 0 140 2;
#X connect 107 0 141 2;
#X connect 107 0 142 2;
#X connect 107 0 143 2;
#X connect 107 0 144 2;
#X connect 107 0 145 2;
#X connect 107 0 146 2;
#X connect 107 0 147 2;
#X connect 107 0 148 2;
#X connect 107 0 149 2;
#X connect 107 0 150 2;
#X connect 107 0 151 2;
#X connect 108 0 31 0;
#X connect 109 0 35 0;
#X connect 110 0 38 0;
#X connect 111 0 43 0;
#X connect 112 0 44 0;
#X connect 113 0 51 0;
#X connect 114 0 54 0;
#X connect 115 0 59 0;
#X connect 116 0 63 0;
#X connect 117 0 67 0;
#X connect 118 0 68 0;
#X connect 119 0 75 0;
#X connect 120 0 76 0;
#X connect 121 0 77 0;
#X connect 122 0 78 0;
#X connect 123 0 79 0;
#X connect 124 0 80 0;
#X connect 125 0 81 0;
#X connect 126 0 82 0;
#X connect 127 0 10 0;
#X connect 128 0 140 0;
#X connect 129 0 141 0;
#X connect 130 0 142 0;
#X connect 131 0 143 0;
#X connect 132 0 144 0;
#X connect 133 0 145 0;
#X connect 134 0 146 0;
#X connect 135 0 147 0;
#X connect 136 0 148 0;
#X connect 137 0 149 0;
#X connect 138 0 150 0;
#X connect 139 0 151 0;
#X connect 140 0 1 0;
#X connect 140 0 1 1;
#X connect 141 0 1 0;
#X connect 141 0 1 1;
#X connect 142 0 1 0;
#X connect 142 0 1 1;
#X connect 143 0 1 0;
#X connect 143 0 1 1;
#X connect 144 0 1 0;
#X connect 144 0 1 1;
#X connect 145 0 1 0;
#X connect 145 0 1 1;
#X connect 146 0 1 0;
#X connect 146 0 1 1;
#X connect 147 0 1 0;
#X connect 147 0 1 1;
#X connect 148 0 1 0;
#X connect 148 0 1 1;
#X connect 149 0 1 0;
#X connect 149 0 1 1;
#X connect 150 0 1 0;
#X connect 150 0 1 1;
#X connect 151 0 1 0;
#X connect 151 0 1 1;
#X connect 152 0 164 0;
#X connect 152 0 163 0;
#X connect 152 0 162 0;
#X connect 152 0 161 0;
#X connect 152 0 160 0;
#X connect 152 0 159 0;
#X connect 152 0 158 0;
#X connect 152 0 157 0;
#X connect 152 0 156 0;
#X connect 152 0 155 0;
#X connect 152 0 154 0;
#X connect 152 0 153 0;
#X connect 153 0 140 1;
#X connect 154 0 141 1;
#X connect 155 0 142 1;
#X connect 156 0 143 1;
#X connect 157 0 144 1;
#X connect 158 0 145 1;
#X connect 159 0 146 1;
#X connect 160 0 147 1;
#X connect 161 0 148 1;
#X connect 162 0 149 1;
#X connect 163 0 150 1;
#X connect 164 0 151 1;
#X connect 165 0 166 0;
#X connect 166 0 128 0;
#X connect 166 0 129 0;
#X connect 166 0 130 0;
#X connect 166 0 131 0;
#X connect 166 0 132 0;
#X connect 166 0 133 0;
#X connect 166 0 134 0;
#X connect 166 0 135 0;
#X connect 166 0 136 0;
#X connect 166 0 137 0;
#X connect 166 0 138 0;
#X connect 166 0 139 0;
#X coords 0 -1 1 1 220 350 1 0 0;
