#N canvas 1055 308 450 300 12;
#X obj 58 179 osc~;
#X obj 58 208 *~;
#X obj 57 237 *~ 0.1;
#X obj 16 120 inlet;
#X obj 85 47 inlet;
#X obj 57 267 outlet~;
#X obj 83 149 mtof;
#X obj 144 187 line~;
#X obj 142 159 pack 0 10;
#X obj 86 121 + 60;
#X obj 89 91 +;
#X obj 135 56 t b f;
#X obj 195 5 inlet;
#X obj 195 29 route 4;
#X connect 0 0 1 0;
#X connect 1 0 2 0;
#X connect 2 0 5 0;
#X connect 3 0 8 0;
#X connect 4 0 10 0;
#X connect 6 0 0 0;
#X connect 7 0 1 1;
#X connect 8 0 7 0;
#X connect 9 0 6 0;
#X connect 10 0 9 0;
#X connect 11 0 10 0;
#X connect 11 1 10 1;
#X connect 12 0 13 0;
#X connect 13 0 11 0;
