#N canvas 85 8 1920 976 12;
#X obj 902 495 *~;
#X obj 101 242 abs~;
#X obj 105 303 clip~ 0 1;
#X obj 104 273 *~ 10000;
#X obj 108 344 snapshot~;
#X obj 30 276 loadbang;
#X obj 103 438 line~;
#X obj 28 306 metro 1;
#X obj 102 408 pack 0 10;
#X obj 286 267 route 0;
#X obj 342 267 route 1;
#X obj 397 266 route 2;
#X obj 453 268 route 3;
#X obj 508 269 route 4;
#X obj 564 269 route 5;
#X obj 619 268 route 6;
#X obj 675 270 route 7;
#X obj 730 269 route 8;
#X obj 786 269 route 9;
#X obj 841 268 route 10;
#X obj 904 270 route 11;
#X obj 966 270 route 12;
#X obj 1028 270 route 13;
#X obj 1090 269 route 14;
#X obj 1154 270 route 15;
#X obj 1216 268 route 16;
#X obj 1279 270 route 17;
#X obj 1341 270 route 18;
#X obj 1403 270 route 19;
#X obj 284 365 part 0;
#X obj 340 365 part 1;
#X obj 394 366 part 2;
#X obj 451 367 part 3;
#X obj 505 368 part 4;
#X obj 562 367 part 5;
#X obj 615 368 part 6;
#X obj 671 369 part 7;
#X obj 727 367 part 8;
#X obj 784 366 part 9;
#X obj 837 368 part 10;
#X obj 900 369 part 11;
#X obj 963 369 part 12;
#X obj 1026 368 part 13;
#X obj 1086 369 part 14;
#X obj 1150 368 part 15;
#X obj 1212 368 part 16;
#X obj 1275 369 part 17;
#X obj 1338 369 part 18;
#X obj 1401 368 part 19;
#X obj 895 234 sigmund~ -npeak 20 peaks;
#X obj 892 706 outlet~;
#X obj 612 62 inlet~;
#X text 25 178 cuts to silence if the input is 0 for long enough,
f 21;
#X obj 890 555 lop~;
#X obj 822 583 hip~;
#X obj 883 648 *~;
#X obj 976 630 *~;
#X obj 1085 572 expr 1 - $i1;
#X obj 753 509 param.get 6;
#X obj 1063 510 param.get 7;
#X obj 178 377 param.get 3;
#X obj 893 599 lop~;
#X obj 842 620 hip~;
#X connect 0 0 53 0;
#X connect 0 0 56 0;
#X connect 1 0 3 0;
#X connect 2 0 4 0;
#X connect 3 0 2 0;
#X connect 4 0 8 0;
#X connect 5 0 7 0;
#X connect 6 0 0 1;
#X connect 7 0 4 0;
#X connect 8 0 6 0;
#X connect 9 0 29 0;
#X connect 10 0 30 0;
#X connect 11 0 31 0;
#X connect 12 0 32 0;
#X connect 13 0 33 0;
#X connect 14 0 34 0;
#X connect 15 0 35 0;
#X connect 16 0 36 0;
#X connect 17 0 37 0;
#X connect 18 0 38 0;
#X connect 19 0 39 0;
#X connect 20 0 40 0;
#X connect 21 0 41 0;
#X connect 22 0 42 0;
#X connect 23 0 43 0;
#X connect 24 0 44 0;
#X connect 25 0 45 0;
#X connect 26 0 46 0;
#X connect 27 0 47 0;
#X connect 28 0 48 0;
#X connect 29 0 0 0;
#X connect 30 0 0 0;
#X connect 31 0 0 0;
#X connect 32 0 0 0;
#X connect 33 0 0 0;
#X connect 34 0 0 0;
#X connect 35 0 0 0;
#X connect 36 0 0 0;
#X connect 37 0 0 0;
#X connect 38 0 0 0;
#X connect 39 0 0 0;
#X connect 40 0 0 0;
#X connect 41 0 0 0;
#X connect 42 0 0 0;
#X connect 43 0 0 0;
#X connect 44 0 0 0;
#X connect 45 0 0 0;
#X connect 46 0 0 0;
#X connect 47 0 0 0;
#X connect 48 0 0 0;
#X connect 49 0 9 0;
#X connect 49 0 10 0;
#X connect 49 0 11 0;
#X connect 49 0 12 0;
#X connect 49 0 13 0;
#X connect 49 0 14 0;
#X connect 49 0 15 0;
#X connect 49 0 16 0;
#X connect 49 0 17 0;
#X connect 49 0 18 0;
#X connect 49 0 19 0;
#X connect 49 0 20 0;
#X connect 49 0 21 0;
#X connect 49 0 22 0;
#X connect 49 0 23 0;
#X connect 49 0 24 0;
#X connect 49 0 25 0;
#X connect 49 0 26 0;
#X connect 49 0 27 0;
#X connect 49 0 28 0;
#X connect 51 0 1 0;
#X connect 51 0 49 0;
#X connect 51 0 54 0;
#X connect 53 0 61 0;
#X connect 54 0 62 0;
#X connect 55 0 50 0;
#X connect 56 0 50 0;
#X connect 57 0 56 1;
#X connect 58 0 53 1;
#X connect 58 0 54 1;
#X connect 58 0 61 1;
#X connect 58 0 62 1;
#X connect 59 0 55 1;
#X connect 59 0 57 0;
#X connect 60 0 8 1;
#X connect 61 0 55 0;
#X connect 62 0 55 0;
