#N canvas 582 337 255 302 10;
#X obj 10 71 route \$1;
#X obj 37 138 outlet;
#X obj 55 181 symbol \$2;
#X obj 10 271 send \$2;
#X obj 10 246 spigot 0;
#X obj 10 115 t f f;
#X obj 55 202 sel \$2;
#X obj 55 160 loadbang;
#X obj 55 224 f 1;
#X obj 6 19 receive param;
#X obj 10 93 change -1e+37;
#X connect 0 0 10 0;
#X connect 2 0 6 0;
#X connect 4 0 3 0;
#X connect 5 0 4 0;
#X connect 5 1 1 0;
#X connect 6 0 8 0;
#X connect 7 0 2 0;
#X connect 8 0 4 1;
#X connect 9 0 0 0;
#X connect 10 0 5 0;
