#N canvas 660 128 1199 816 12;
#X obj 85 18 inlet;
#X obj 89 50 unpack f f f f;
#X obj 80 616 pack 0 10;
#X obj 78 653 line~;
#X obj 153 654 line~;
#X obj 118 731 *~;
#X obj 122 760 outlet~;
#X obj 88 701 osc~;
#X obj 59 97 ftom;
#X obj 78 583 mtof;
#X obj 145 228 select 0 1 2 3 4 5 6 7 8 9 10 11;
#X msg 168 314 set \$1;
#X floatatom 159 339 5 0 0 0 - - - 0;
#X msg 256 316 set \$1;
#X floatatom 247 341 5 0 0 0 - - - 0;
#X msg 351 318 set \$1;
#X floatatom 342 343 5 0 0 0 - - - 0;
#X msg 449 321 set \$1;
#X floatatom 440 346 5 0 0 0 - - - 0;
#X msg 552 323 set \$1;
#X floatatom 543 348 5 0 0 0 - - - 0;
#X msg 646 325 set \$1;
#X floatatom 637 350 5 0 0 0 - - - 0;
#X msg 743 322 set \$1;
#X floatatom 734 347 5 0 0 0 - - - 0;
#X msg 838 324 set \$1;
#X floatatom 829 349 5 0 0 0 - - - 0;
#X msg 938 326 set \$1;
#X floatatom 929 351 5 0 0 0 - - - 0;
#X msg 1035 329 set \$1;
#X floatatom 1038 354 5 0 0 0 - - - 0;
#X msg 1127 331 set \$1;
#X floatatom 1130 356 5 0 0 0 - - - 0;
#X msg 1228 333 set \$1;
#X floatatom 1231 358 5 0 0 0 - - - 0;
#X obj 60 152 expr round($f1);
#X obj 100 461 expr (log($f1)*($f2/25));
#X obj 155 617 pack 0 5;
#X obj 148 191 expr ($i1) % 12;
#X obj 366 504 + 12;
#X obj 93 533 expr ($f4 * (1 - $f5)) + ($i1 * $f5) - ($i1 % 12) + (11
- $f2) + $i3 - 12, f 73;
#X obj 418 171 param.get 2;
#X obj 472 205 param.get 3;
#X obj 559 456 param.get 5;
#X obj 419 482 param.get 4;
#X obj 168 293 param.get 8;
#X obj 256 295 param.get 9;
#X obj 351 297 param.get 10;
#X obj 449 300 param.get 11;
#X obj 552 302 param.get 12;
#X obj 646 303 param.get 13;
#X obj 743 301 param.get 14;
#X obj 838 303 param.get 15;
#X obj 938 305 param.get 16;
#X obj 1035 308 param.get 17;
#X obj 1228 311 param.get 19;
#X obj 1127 309 param.get 18;
#X connect 0 0 1 0;
#X connect 1 0 8 0;
#X connect 1 0 36 0;
#X connect 1 1 37 0;
#X connect 2 0 3 0;
#X connect 3 0 7 0;
#X connect 4 0 5 1;
#X connect 5 0 6 0;
#X connect 7 0 5 0;
#X connect 8 0 35 0;
#X connect 8 0 40 3;
#X connect 9 0 2 0;
#X connect 10 0 12 0;
#X connect 10 1 14 0;
#X connect 10 2 16 0;
#X connect 10 3 18 0;
#X connect 10 4 20 0;
#X connect 10 5 22 0;
#X connect 10 6 24 0;
#X connect 10 7 26 0;
#X connect 10 8 28 0;
#X connect 10 9 30 0;
#X connect 10 10 32 0;
#X connect 10 11 34 0;
#X connect 11 0 12 0;
#X connect 12 0 40 1;
#X connect 13 0 14 0;
#X connect 14 0 40 1;
#X connect 15 0 16 0;
#X connect 16 0 40 1;
#X connect 17 0 18 0;
#X connect 18 0 40 1;
#X connect 19 0 20 0;
#X connect 20 0 40 1;
#X connect 21 0 22 0;
#X connect 22 0 40 1;
#X connect 23 0 24 0;
#X connect 24 0 40 1;
#X connect 25 0 26 0;
#X connect 26 0 40 1;
#X connect 27 0 28 0;
#X connect 28 0 40 1;
#X connect 29 0 30 0;
#X connect 30 0 40 1;
#X connect 31 0 32 0;
#X connect 32 0 40 1;
#X connect 33 0 34 0;
#X connect 34 0 40 1;
#X connect 35 0 38 0;
#X connect 35 0 40 0;
#X connect 36 0 2 1;
#X connect 37 0 4 0;
#X connect 38 0 10 0;
#X connect 39 0 40 2;
#X connect 40 0 9 0;
#X connect 41 0 36 1;
#X connect 42 0 37 1;
#X connect 43 0 40 4;
#X connect 44 0 39 0;
#X connect 45 0 11 0;
#X connect 46 0 13 0;
#X connect 47 0 15 0;
#X connect 48 0 17 0;
#X connect 49 0 19 0;
#X connect 50 0 21 0;
#X connect 51 0 23 0;
#X connect 52 0 25 0;
#X connect 53 0 27 0;
#X connect 54 0 29 0;
#X connect 55 0 33 0;
#X connect 56 0 31 0;
