#N canvas 575 108 1199 816 12;
#X obj 85 18 inlet;
#X obj 89 50 unpack f f f f;
#X obj 80 616 pack 0 10;
#X obj 78 653 line~;
#X obj 153 654 line~;
#X obj 118 731 *~;
#X obj 122 760 outlet~;
#X obj 88 701 osc~;
#X obj 59 97 ftom;
#X obj 78 583 mtof;
#X obj 145 228 select 0 1 2 3 4 5 6 7 8 9 10 11;
#X msg 168 314 set \$1;
#X obj 168 293 r note1;
#X floatatom 159 339 5 0 0 0 - - - 0;
#X msg 242 316 set \$1;
#X floatatom 233 341 5 0 0 0 - - - 0;
#X msg 313 318 set \$1;
#X floatatom 304 343 5 0 0 0 - - - 0;
#X obj 242 295 r note2;
#X obj 313 297 r note3;
#X msg 380 321 set \$1;
#X floatatom 371 346 5 0 0 0 - - - 0;
#X msg 454 323 set \$1;
#X floatatom 445 348 5 0 0 0 - - - 0;
#X msg 525 325 set \$1;
#X floatatom 516 350 5 0 0 0 - - - 0;
#X obj 380 300 r note4;
#X obj 454 302 r note5;
#X obj 525 303 r note6;
#X msg 590 322 set \$1;
#X floatatom 581 347 5 0 0 0 - - - 0;
#X msg 664 324 set \$1;
#X floatatom 655 349 5 0 0 0 - - - 0;
#X msg 735 326 set \$1;
#X floatatom 726 351 5 0 0 0 - - - 0;
#X msg 802 329 set \$1;
#X floatatom 793 354 5 0 0 0 - - - 0;
#X msg 876 331 set \$1;
#X floatatom 867 356 5 0 0 0 - - - 0;
#X msg 947 333 set \$1;
#X floatatom 938 358 5 0 0 0 - - - 0;
#X obj 590 301 r note7;
#X obj 664 303 r note8;
#X obj 735 305 r note9;
#X obj 802 308 r note10;
#X obj 876 310 r note11;
#X obj 947 311 r note12;
#X obj 60 152 expr round($f1);
#X obj 100 461 expr (log($f1)*($f2/25));
#X obj 155 617 pack 0 5;
#X obj 148 191 expr ($i1) % 12;
#X obj 419 482 r transpose;
#X obj 366 504 + 12;
#X obj 417 171 r fsmooth;
#X obj 472 205 r asmooth;
#X obj 559 456 r quantize;
#X obj 93 533 expr ($f4 * (1 - $f5)) + ($i1 * $f5) - ($i1 % 12) + (11
- $f2) + $i3 - 12, f 73;
#X connect 0 0 1 0;
#X connect 1 0 8 0;
#X connect 1 0 48 0;
#X connect 1 1 49 0;
#X connect 2 0 3 0;
#X connect 3 0 7 0;
#X connect 4 0 5 1;
#X connect 5 0 6 0;
#X connect 7 0 5 0;
#X connect 8 0 47 0;
#X connect 8 0 56 3;
#X connect 9 0 2 0;
#X connect 10 0 13 0;
#X connect 10 1 15 0;
#X connect 10 2 17 0;
#X connect 10 3 21 0;
#X connect 10 4 23 0;
#X connect 10 5 25 0;
#X connect 10 6 30 0;
#X connect 10 7 32 0;
#X connect 10 8 34 0;
#X connect 10 9 36 0;
#X connect 10 10 38 0;
#X connect 10 11 40 0;
#X connect 11 0 13 0;
#X connect 12 0 11 0;
#X connect 13 0 56 1;
#X connect 14 0 15 0;
#X connect 15 0 56 1;
#X connect 16 0 17 0;
#X connect 17 0 56 1;
#X connect 18 0 14 0;
#X connect 19 0 16 0;
#X connect 20 0 21 0;
#X connect 21 0 56 1;
#X connect 22 0 23 0;
#X connect 23 0 56 1;
#X connect 24 0 25 0;
#X connect 25 0 56 1;
#X connect 26 0 20 0;
#X connect 27 0 22 0;
#X connect 28 0 24 0;
#X connect 29 0 30 0;
#X connect 30 0 56 1;
#X connect 31 0 32 0;
#X connect 32 0 56 1;
#X connect 33 0 34 0;
#X connect 34 0 56 1;
#X connect 35 0 36 0;
#X connect 36 0 56 1;
#X connect 37 0 38 0;
#X connect 38 0 56 1;
#X connect 39 0 40 0;
#X connect 40 0 56 1;
#X connect 41 0 29 0;
#X connect 42 0 31 0;
#X connect 43 0 33 0;
#X connect 44 0 35 0;
#X connect 45 0 37 0;
#X connect 46 0 39 0;
#X connect 47 0 50 0;
#X connect 47 0 56 0;
#X connect 48 0 2 1;
#X connect 49 0 4 0;
#X connect 50 0 10 0;
#X connect 51 0 52 0;
#X connect 52 0 56 2;
#X connect 53 0 48 1;
#X connect 54 0 49 1;
#X connect 55 0 56 4;
#X connect 56 0 9 0;
