#N canvas 41 35 1920 966 12;
#X obj 263 415 adc~ 1 2;
#X obj 216 720 dac~ 1 2;
#X obj 479 12 param.change;
#X obj 120 505 channel~;
#X obj 185 506 channel~;
#X obj 13 322 hsl 175 15 0 100 0 0 \$0-mix-s \$0-mix mix -2 -8 0 10
#fcfcfc #000000 #000000 0 1;
#X obj 144 646 *~;
#X obj 218 648 *~;
#X obj 309 644 *~;
#X obj 377 651 *~;
#X obj 348 537 / 100;
#X obj 443 573 - 1;
#X obj 407 607 * -1;
#X obj 10 31 vradio 15 1 0 12 \$0-n1-s \$0-n1 empty 0 -8 0 10 #fcfcfc
#000000 #000000 0;
#X obj 25 31 vradio 15 1 0 12 \$0-n2-s \$0-n2 empty 0 -8 0 10 #fcfcfc
#000000 #000000 0;
#X obj 40 31 vradio 15 1 0 12 \$0-n3-s \$0-n3 empty 0 -8 0 10 #fcfcfc
#000000 #000000 0;
#X obj 55 31 vradio 15 1 0 12 \$0-n4-s \$0-n4 empty 0 -8 0 10 #fcfcfc
#000000 #000000 0;
#X obj 70 31 vradio 15 1 0 12 \$0-n5-s \$0-n5 empty 0 -8 0 10 #fcfcfc
#000000 #000000 0;
#X obj 85 31 vradio 15 1 0 12 \$0-n6-s \$0-n6 empty 0 -8 0 10 #fcfcfc
#000000 #000000 0;
#X obj 100 31 vradio 15 1 0 12 \$0-n7-s \$0-n7 empty 0 -8 0 10 #fcfcfc
#000000 #000000 0;
#X obj 115 31 vradio 15 1 0 12 \$0-n8-s \$0-n8 empty 0 -8 0 10 #fcfcfc
#000000 #000000 0;
#X obj 130 31 vradio 15 1 0 12 \$0-n9-s \$0-n9 empty 0 -8 0 10 #fcfcfc
#000000 #000000 0;
#X obj 145 31 vradio 15 1 0 12 \$0-n10-s \$0-n10 empty 0 -8 0 10 #fcfcfc
#000000 #000000 0;
#X obj 160 31 vradio 15 1 0 12 \$0-n11-s \$0-n11 empty 0 -8 0 10 #fcfcfc
#000000 #000000 0;
#X obj 175 31 vradio 15 1 0 12 \$0-n12-s \$0-n12 empty 0 -8 0 10 #fcfcfc
#000000 #000000 0;
#X obj 13 228 hsl 80 15 0 100 0 0 \$0-ftime-s \$0-ftime freq\\\ smooth
-2 -8 0 10 #fcfcfc #000000 #000000 0 1;
#X floatatom 156 260 6 -24 24 2 pitch \$0-pitch \$0-pitch-s 8;
#X obj 108 228 hsl 80 15 1 100 0 0 \$0-atime-s $-atime amp\\\ smooth
-2 -8 0 10 #fcfcfc #000000 #000000 0 1;
#X obj 13 291 hsl 105 15 2000 21000 1 0 \$0-split-s \$0-split high\\\ split
-2 -8 0 10 #fcfcfc #000000 #000000 0 1;
#X obj 13 259 hsl 130 15 0 1 0 0 \$0-quantize-s \$0-quantize pitch\\\ correct
-2 -8 0 10 #fcfcfc #000000 #000000 0 1;
#X obj 131 291 tgl 15 0 \$0-enabled-s \$0-enabled enabled 17 7 0 10
#fcfcfc #000000 #000000 0 1;
#X msg 861 342 set \$1;
#X obj 670 366 param.set 1;
#X obj 670 342 r \$0-mix-s;
#X obj 771 367 s \$0-mix;
#X msg 861 414 set \$1;
#X obj 670 414 r \$0-ftime-s;
#X obj 772 439 s \$0-ftime;
#X msg 864 495 set \$1;
#X obj 670 438 param.set 2;
#X obj 772 414 param.get 2;
#X obj 673 519 param.set 3;
#X obj 775 495 param.get 3;
#X obj 775 520 s \$0-atime;
#X obj 673 495 r \$0-atime-s;
#X msg 862 570 set \$1;
#X msg 865 651 set \$1;
#X obj 671 594 param.set 4;
#X obj 773 570 param.get 4;
#X obj 776 651 param.get 5;
#X obj 661 678 param.set 5;
#X obj 671 570 r \$0-pitch-s;
#X obj 775 598 s \$0-pitch;
#X obj 660 654 r \$0-quantize-s;
#X obj 777 676 s \$0-quantize;
#X msg 869 720 set \$1;
#X obj 664 723 r \$0-split-s;
#X obj 781 745 s \$0-split;
#X msg 867 797 set \$1;
#X obj 662 800 r \$0-enabled-s;
#X obj 778 822 s \$0-enabled;
#X obj 779 797 param.get 7;
#X obj 663 823 param.set 7;
#X obj 665 747 param.set 6;
#X obj 780 720 param.get 6;
#X msg 1227 16 set \$1;
#X obj 1023 42 param.set 8;
#X obj 1139 16 param.get 8;
#X obj 1022 19 r \$0-n1-s;
#X obj 1139 41 s \$0-n1;
#X msg 1227 88 set \$1;
#X obj 1022 91 r \$0-n2-s;
#X obj 1139 113 s \$0-n2;
#X obj 1023 114 param.set 9;
#X obj 1139 88 param.get 9;
#X msg 1223 163 set \$1;
#X msg 1223 235 set \$1;
#X obj 1018 166 r \$0-n3-s;
#X obj 1135 163 param.get 10;
#X obj 1019 189 param.set 10;
#X obj 1135 188 s \$0-n3;
#X obj 1018 238 r \$0-n4-s;
#X obj 1019 261 param.set 11;
#X obj 1135 260 s \$0-n4;
#X obj 1135 235 param.get 11;
#X msg 1225 307 set \$1;
#X msg 1225 379 set \$1;
#X msg 1221 454 set \$1;
#X msg 1221 526 set \$1;
#X msg 1226 613 set \$1;
#X msg 1226 685 set \$1;
#X msg 1222 760 set \$1;
#X msg 1222 832 set \$1;
#X obj 1021 333 param.set 12;
#X obj 1021 405 param.set 13;
#X obj 1017 480 param.set 14;
#X obj 1017 552 param.set 15;
#X obj 1022 639 param.set 16;
#X obj 1022 711 param.set 17;
#X obj 1018 786 param.set 18;
#X obj 1018 858 param.set 19;
#X obj 1137 307 param.get 12;
#X obj 1137 379 param.get 13;
#X obj 1133 454 param.get 14;
#X obj 1133 526 param.get 15;
#X obj 1138 613 param.get 16;
#X obj 1138 685 param.get 17;
#X obj 1134 760 param.get 18;
#X obj 1134 832 param.get 19;
#X obj 1020 310 r \$0-n5-s;
#X obj 1137 332 s \$0-n5;
#X obj 1137 404 s \$0-n6;
#X obj 1020 382 r \$0-n6-s;
#X obj 1016 457 r \$0-n7-s;
#X obj 1133 479 s \$0-n7;
#X obj 1133 551 s \$0-n8;
#X obj 1016 529 r \$0-n8-s;
#X obj 1021 616 r \$0-n9-s;
#X obj 1138 638 s \$0-n9;
#X obj 1138 710 s \$0-n10;
#X obj 1021 688 r \$0-n10-s;
#X obj 1017 763 r \$0-n11-s;
#X obj 1134 785 s \$0-n11;
#X obj 1017 835 r \$0-n12-s;
#X obj 1134 857 s \$0-n12;
#X obj 773 341 param.get 1;
#X obj 380 472 param.get 1;
#X connect 0 0 8 0;
#X connect 0 0 3 0;
#X connect 0 1 9 0;
#X connect 0 1 4 0;
#X connect 3 0 6 0;
#X connect 4 0 7 0;
#X connect 6 0 1 0;
#X connect 7 0 1 1;
#X connect 8 0 1 0;
#X connect 9 0 1 1;
#X connect 10 0 6 1;
#X connect 10 0 7 1;
#X connect 10 0 11 0;
#X connect 11 0 12 0;
#X connect 12 0 8 1;
#X connect 12 0 9 1;
#X connect 31 0 34 0;
#X connect 33 0 32 0;
#X connect 35 0 37 0;
#X connect 36 0 39 0;
#X connect 38 0 43 0;
#X connect 40 0 35 0;
#X connect 42 0 38 0;
#X connect 44 0 41 0;
#X connect 45 0 52 0;
#X connect 46 0 54 0;
#X connect 48 0 45 0;
#X connect 49 0 46 0;
#X connect 51 0 47 0;
#X connect 53 0 50 0;
#X connect 55 0 57 0;
#X connect 56 0 63 0;
#X connect 58 0 60 0;
#X connect 59 0 62 0;
#X connect 61 0 58 0;
#X connect 64 0 55 0;
#X connect 65 0 69 0;
#X connect 67 0 65 0;
#X connect 68 0 66 0;
#X connect 70 0 72 0;
#X connect 71 0 73 0;
#X connect 74 0 70 0;
#X connect 75 0 80 0;
#X connect 76 0 83 0;
#X connect 77 0 79 0;
#X connect 78 0 75 0;
#X connect 81 0 82 0;
#X connect 84 0 76 0;
#X connect 85 0 110 0;
#X connect 86 0 111 0;
#X connect 87 0 114 0;
#X connect 88 0 115 0;
#X connect 89 0 118 0;
#X connect 90 0 119 0;
#X connect 91 0 122 0;
#X connect 92 0 124 0;
#X connect 101 0 85 0;
#X connect 102 0 86 0;
#X connect 103 0 87 0;
#X connect 104 0 88 0;
#X connect 105 0 89 0;
#X connect 106 0 90 0;
#X connect 107 0 91 0;
#X connect 108 0 92 0;
#X connect 109 0 93 0;
#X connect 112 0 94 0;
#X connect 113 0 95 0;
#X connect 116 0 96 0;
#X connect 117 0 97 0;
#X connect 120 0 98 0;
#X connect 121 0 99 0;
#X connect 123 0 100 0;
#X connect 125 0 31 0;
#X connect 126 0 10 0;
#X coords 0 -1 1 1 200 350 1 0 0;
