#N canvas -53 25 1920 976 12;
#X obj 250 477 adc~ 1 2;
#X obj 211 705 dac~ 1 2;
#X obj 479 12 param.change;
#X obj 649 23 loadbang;
#X obj 120 505 channel~;
#X obj 185 506 channel~;
#X obj 13 322 hsl 175 15 0 100 0 0 empty empty mix -2 -8 0 10 #fcfcfc
#000000 #000000 0 1;
#X obj 144 646 *~;
#X obj 218 648 *~;
#X obj 309 644 *~;
#X obj 377 651 *~;
#X msg 638 84 100;
#X obj 348 537 / 100;
#X obj 443 573 - 1;
#X obj 407 607 * -1;
#X obj 552 84 param.set 1;
#X obj 777 52 param.get 1;
#X obj 869 51 s p1;
#X obj 356 502 r p1;
#X obj 10 31 vradio 15 1 0 12 empty empty empty 0 -8 0 10 #fcfcfc #000000
#000000 0;
#X obj 25 31 vradio 15 1 0 12 empty empty empty 0 -8 0 10 #fcfcfc #000000
#000000 0;
#X obj 40 31 vradio 15 1 0 12 empty empty empty 0 -8 0 10 #fcfcfc #000000
#000000 0;
#X obj 55 31 vradio 15 1 0 12 empty empty empty 0 -8 0 10 #fcfcfc #000000
#000000 0;
#X obj 70 31 vradio 15 1 0 12 empty empty empty 0 -8 0 10 #fcfcfc #000000
#000000 0;
#X obj 85 31 vradio 15 1 0 12 empty empty empty 0 -8 0 10 #fcfcfc #000000
#000000 0;
#X obj 100 31 vradio 15 1 0 12 empty empty empty 0 -8 0 10 #fcfcfc
#000000 #000000 0;
#X obj 115 31 vradio 15 1 0 12 empty empty empty 0 -8 0 10 #fcfcfc
#000000 #000000 0;
#X obj 130 31 vradio 15 1 0 12 empty empty empty 0 -8 0 10 #fcfcfc
#000000 #000000 0;
#X obj 145 31 vradio 15 1 0 12 empty empty empty 0 -8 0 10 #fcfcfc
#000000 #000000 0;
#X obj 160 31 vradio 15 1 0 12 empty empty empty 0 -8 0 10 #fcfcfc
#000000 #000000 0;
#X obj 175 31 vradio 15 1 0 12 empty empty empty 0 -8 0 10 #fcfcfc
#000000 #000000 0;
#X obj 262 28 s note1;
#X obj 264 56 s note2;
#X obj 265 86 s note3;
#X obj 267 112 s note4;
#X obj 271 137 s note5;
#X obj 271 166 s note6;
#X obj 273 194 s note7;
#X obj 274 224 s note8;
#X obj 276 250 s note9;
#X obj 280 275 s note10;
#X obj 278 301 s note11;
#X obj 282 326 s note12;
#X obj 13 228 hsl 80 15 0 100 0 0 empty empty freq\ smooth -2 -8 0
10 #fcfcfc #000000 #000000 0 1;
#X msg 642 114 10;
#X msg 640 163 0;
#X obj 548 113 param.set 2;
#X obj 776 81 param.get 2;
#X msg 347 35 11;
#X msg 351 58 10;
#X msg 352 84 9;
#X msg 352 108 8;
#X msg 349 131 7;
#X msg 353 154 6;
#X msg 354 180 5;
#X msg 354 204 4;
#X msg 353 229 3;
#X msg 357 252 2;
#X msg 358 278 1;
#X msg 358 302 0;
#X floatatom 156 260 6 -12 12 2 pitch - - 8;
#X obj 108 228 hsl 80 15 1 100 0 0 empty empty amp\ smooth -2 -8 0
10 #fcfcfc #000000 #000000 0 1;
#X obj 545 162 param.set 4;
#X obj 546 141 param.set 3;
#X obj 775 105 param.get 3;
#X obj 778 130 param.get 4;
#X obj 870 81 s fsmooth;
#X obj 869 103 s asmooth;
#X obj 872 128 s transpose;
#X msg 639 138 5;
#X obj 894 354 pdcontrol;
#X obj 894 378 savepanel;
#X msg 894 330 dir;
#X obj 13 291 hsl 105 15 2000 21000 1 0 empty empty high\ split -2
-8 0 10 #fcfcfc #000000 #000000 0 1;
#X obj 544 185 param.set 5;
#X msg 638 189 1;
#X obj 779 153 param.get 5;
#X obj 873 151 s quantize;
#X obj 13 259 hsl 130 15 0 1 0 0 empty empty pitch\ correct -2 -8 0
10 #fcfcfc #000000 #000000 0 1;
#X obj 540 212 param.set 6;
#X obj 778 178 param.get 6;
#X obj 872 176 s highsplit;
#X msg 634 215 21000;
#X obj 131 291 tgl 15 0 empty empty enabled 17 7 0 10 #fcfcfc #000000
#000000 0 1;
#X msg 632 239 1;
#X obj 538 235 param.set 7;
#X obj 778 205 param.get 7;
#X obj 872 203 s senabled;
#X connect 0 0 9 0;
#X connect 0 0 4 0;
#X connect 0 1 10 0;
#X connect 0 1 5 0;
#X connect 3 0 11 0;
#X connect 3 0 44 0;
#X connect 3 0 45 0;
#X connect 3 0 48 0;
#X connect 3 0 49 0;
#X connect 3 0 50 0;
#X connect 3 0 51 0;
#X connect 3 0 52 0;
#X connect 3 0 53 0;
#X connect 3 0 54 0;
#X connect 3 0 55 0;
#X connect 3 0 56 0;
#X connect 3 0 57 0;
#X connect 3 0 58 0;
#X connect 3 0 59 0;
#X connect 3 0 69 0;
#X connect 3 0 75 0;
#X connect 3 0 82 0;
#X connect 3 0 84 0;
#X connect 4 0 7 0;
#X connect 5 0 8 0;
#X connect 6 0 15 0;
#X connect 7 0 1 0;
#X connect 8 0 1 1;
#X connect 9 0 1 0;
#X connect 10 0 1 1;
#X connect 11 0 6 0;
#X connect 12 0 7 1;
#X connect 12 0 8 1;
#X connect 12 0 13 0;
#X connect 13 0 14 0;
#X connect 14 0 9 1;
#X connect 14 0 10 1;
#X connect 16 0 17 0;
#X connect 18 0 12 0;
#X connect 19 0 31 0;
#X connect 20 0 32 0;
#X connect 21 0 33 0;
#X connect 22 0 34 0;
#X connect 23 0 35 0;
#X connect 24 0 36 0;
#X connect 25 0 37 0;
#X connect 26 0 38 0;
#X connect 27 0 39 0;
#X connect 28 0 40 0;
#X connect 29 0 41 0;
#X connect 30 0 42 0;
#X connect 43 0 46 0;
#X connect 44 0 43 0;
#X connect 45 0 60 0;
#X connect 47 0 66 0;
#X connect 48 0 19 0;
#X connect 49 0 20 0;
#X connect 50 0 21 0;
#X connect 51 0 22 0;
#X connect 52 0 23 0;
#X connect 53 0 24 0;
#X connect 54 0 25 0;
#X connect 55 0 26 0;
#X connect 56 0 27 0;
#X connect 57 0 28 0;
#X connect 58 0 29 0;
#X connect 59 0 30 0;
#X connect 60 0 62 0;
#X connect 61 0 63 0;
#X connect 64 0 67 0;
#X connect 65 0 68 0;
#X connect 69 0 61 0;
#X connect 70 0 71 0;
#X connect 72 0 70 0;
#X connect 73 0 79 0;
#X connect 75 0 78 0;
#X connect 76 0 77 0;
#X connect 78 0 74 0;
#X connect 80 0 81 0;
#X connect 82 0 73 0;
#X connect 83 0 85 0;
#X connect 84 0 83 0;
#X connect 86 0 87 0;
#X coords 0 -1 1 1 200 350 1 0 0;
